<?xml version="1.0" encoding="utf-8" standalone="no"?>
<!DOCTYPE svg PUBLIC "-//W3C//DTD SVG 1.1//EN"
  "http://www.w3.org/Graphics/SVG/1.1/DTD/svg11.dtd">
<svg xmlns:xlink="http://www.w3.org/1999/xlink" width="1166.4pt" height="662.4pt" viewBox="0 0 1166.4 662.4" xmlns="http://www.w3.org/2000/svg" version="1.1">
 <metadata>
  <rdf:RDF xmlns:dc="http://purl.org/dc/elements/1.1/" xmlns:cc="http://creativecommons.org/ns#" xmlns:rdf="http://www.w3.org/1999/02/22-rdf-syntax-ns#">
   <cc:Work>
    <dc:type rdf:resource="http://purl.org/dc/dcmitype/StillImage"/>
    <dc:date>2026-07-16T05:45:21.160450</dc:date>
    <dc:format>image/svg+xml</dc:format>
    <dc:creator>
     <cc:Agent>
      <dc:title>Matplotlib v3.11.0, https://matplotlib.org/</dc:title>
     </cc:Agent>
    </dc:creator>
   </cc:Work>
  </rdf:RDF>
 </metadata>
 <defs>
  <style type="text/css">*{stroke-linejoin: round; stroke-linecap: butt}</style>
 </defs>
 <g id="figure_1">
  <g id="patch_1">
   <path d="M 0 662.4 
L 1166.4 662.4 
L 1166.4 0 
L 0 0 
z
" style="fill: #ffffff"/>
  </g>
  <g id="axes_1">
   <g id="patch_2">
    <path d="M 75.168 381.744 
L 376.992 381.744 
Q 390.816 381.744 390.816 373.968 
L 390.816 162.072 
Q 390.816 154.296 376.992 154.296 
L 75.168 154.296 
Q 61.344 154.296 61.344 162.072 
L 61.344 373.968 
Q 61.344 381.744 75.168 381.744 
z
" clip-path="url(#p517e485285)" style="fill: #e7f0f8; stroke: #2f6fa3; stroke-width: 1.3; stroke-linejoin: miter"/>
   </g>
   <g id="patch_3">
    <path d="M 432.288 381.744 
L 734.112 381.744 
Q 747.936 381.744 747.936 373.968 
L 747.936 162.072 
Q 747.936 154.296 734.112 154.296 
L 432.288 154.296 
Q 418.464 154.296 418.464 162.072 
L 418.464 373.968 
Q 418.464 381.744 432.288 381.744 
z
" clip-path="url(#p517e485285)" style="fill: #f0eaf6; stroke: #7b5aa6; stroke-width: 1.3; stroke-linejoin: miter"/>
   </g>
   <g id="patch_4">
    <path d="M 789.408 381.744 
L 1091.232 381.744 
Q 1105.056 381.744 1105.056 373.968 
L 1105.056 162.072 
Q 1105.056 154.296 1091.232 154.296 
L 789.408 154.296 
Q 775.584 154.296 775.584 162.072 
L 775.584 373.968 
Q 775.584 381.744 789.408 381.744 
z
" clip-path="url(#p517e485285)" style="fill: #f9e7ea; stroke: #c53b4c; stroke-width: 1.3; stroke-linejoin: miter"/>
   </g>
   <g id="patch_5">
    <path d="M 384.901734 267.696 
Q 402.911536 267.696 419.244287 267.696 
" clip-path="url(#p517e485285)" style="fill: none; stroke-dasharray: 6,4.5; stroke-dashoffset: 0; stroke: #5f6b76; stroke-width: 1.5; stroke-linecap: round"/>
    <path d="M 414.444287 265.296 
L 419.244287 267.696 
L 414.444287 270.096 
z
" clip-path="url(#p517e485285)" style="fill: #5f6b76; stroke-dasharray: 6,4.5; stroke-dashoffset: 0; stroke: #5f6b76; stroke-width: 1.5; stroke-linecap: round"/>
   </g>
   <g id="patch_6">
    <path d="M 742.021734 267.696 
Q 760.031536 267.696 776.364287 267.696 
" clip-path="url(#p517e485285)" style="fill: none; stroke-dasharray: 6,4.5; stroke-dashoffset: 0; stroke: #5f6b76; stroke-width: 1.5; stroke-linecap: round"/>
    <path d="M 771.564287 265.296 
L 776.364287 267.696 
L 771.564287 270.096 
z
" clip-path="url(#p517e485285)" style="fill: #5f6b76; stroke-dasharray: 6,4.5; stroke-dashoffset: 0; stroke: #5f6b76; stroke-width: 1.5; stroke-linecap: round"/>
   </g>
   <g id="patch_7">
    <path d="M 213.408 543.744 
L 952.992 543.744 
Q 966.816 543.744 966.816 535.968 
L 966.816 453.672 
Q 966.816 445.896 952.992 445.896 
L 213.408 445.896 
Q 199.584 445.896 199.584 453.672 
L 199.584 535.968 
Q 199.584 543.744 213.408 543.744 
z
" clip-path="url(#p517e485285)" style="fill: #f6f8fa; stroke: #d8dee6; stroke-width: 1.3; stroke-linejoin: miter"/>
   </g>
   <g id="text_1">
    <text style="font-weight: 700; font-size: 22px; font-family: 'DejaVu Sans'; text-anchor: start; fill: #17212b" x="70.56" y="72.516562" transform="rotate(-0 70.56 72.516562)">Three evidential questions, three different measurements</text>
   </g>
   <g id="text_2">
    <text style="font-size: 11px; font-family: 'DejaVu Sans'; text-anchor: start; fill: #5f6b76" x="70.56" y="96.558281" transform="rotate(-0 70.56 96.558281)">A faithful reconstruction or a decodable signal does not by itself identify a sparse causal mechanism</text>
   </g>
   <g id="text_3">
    <g id="patch_8">
     <path d="M 99.36 195.844 
C 101.614226 195.844 103.776429 194.948386 105.370408 193.354408 
C 106.964386 191.760429 107.86 189.598226 107.86 187.344 
C 107.86 185.089774 106.964386 182.927571 105.370408 181.333592 
C 103.776429 179.739614 101.614226 178.844 99.36 178.844 
C 97.105774 178.844 94.943571 179.739614 93.349592 181.333592 
C 91.755614 182.927571 90.86 185.089774 90.86 187.344 
C 90.86 189.598226 91.755614 191.760429 93.349592 193.354408 
C 94.943571 194.948386 97.105774 195.844 99.36 195.844 
z
" style="fill: #2f6fa3; stroke: #2f6fa3; stroke-linejoin: miter"/>
    </g>
    <text style="font-weight: 700; font-size: 10px; font-family: 'DejaVu Sans'; text-anchor: middle; fill: #ffffff" x="99.36" y="189.941656" transform="rotate(-0 99.36 189.941656)">1</text>
   </g>
   <g id="text_4">
    <text style="font-weight: 700; font-size: 9px; font-family: 'DejaVu Sans'; text-anchor: start; fill: #2f6fa3" x="133.92" y="189.681891" transform="rotate(-0 133.92 189.681891)">RECONSTRUCTION</text>
   </g>
   <g id="text_5">
    <!-- $\mathrm{FVE}=1-\frac{\sum_i\|x_i-\hat{x}_i\|^2}{\sum_i\|x_i-\bar{x}\|^2}$ -->
    <g style="fill: #17212b" transform="translate(168.945 253.44)">
     <text>
      <tspan x="0" y="-0.26125" style="font-size: 13px; font-family: 'DejaVu Sans'; fill: #17212b">F</tspan>
      <tspan x="7.477539" y="-0.26125" style="font-size: 13px; font-family: 'DejaVu Sans'; fill: #17212b">V</tspan>
      <tspan x="16.370605" y="-0.26125" style="font-size: 13px; font-family: 'DejaVu Sans'; fill: #17212b">E</tspan>
      <tspan x="27.117188" y="-0.26125" style="font-size: 13px; font-family: 'DejaVu Sans'; fill: #17212b">=</tspan>
      <tspan x="40.54248" y="-0.26125" style="font-size: 13px; font-family: 'DejaVu Sans'; fill: #17212b">1</tspan>
      <tspan x="51.346191" y="-0.26125" style="font-size: 13px; font-family: 'DejaVu Sans'; fill: #17212b">−</tspan>
      <tspan x="65.583984" y="-13.746875" style="font-size: 9.1px; font-family: 'DejaVu Sans Display'; fill: #17212b">∑</tspan>
      <tspan x="66.583984" y="6.960625" style="font-size: 9.1px; font-family: 'DejaVu Sans Display'; fill: #17212b">∑</tspan>
      <tspan x="68.583984" y="-4.73" style="font-style: oblique; font-size: 6.37px; font-family: 'DejaVu Sans'; fill: #17212b">i</tspan>
      <tspan x="69.583984" y="15.9775" style="font-style: oblique; font-size: 6.37px; font-family: 'DejaVu Sans'; fill: #17212b">i</tspan>
      <tspan x="83.777148" y="-12.381879" style="font-style: oblique; font-size: 6.37px; font-family: 'DejaVu Sans'; fill: #17212b">i</tspan>
      <tspan x="84.777148" y="8.325621" style="font-style: oblique; font-size: 6.37px; font-family: 'DejaVu Sans'; fill: #17212b">i</tspan>
      <tspan x="102.438813" y="-12.381879" style="font-style: oblique; font-size: 6.37px; font-family: 'DejaVu Sans'; fill: #17212b">i</tspan>
      <tspan x="73.841797" y="-13.746875" style="font-size: 9.1px; font-family: 'DejaVu Sans'; fill: #17212b">‖</tspan>
      <tspan x="74.841797" y="6.960625" style="font-size: 9.1px; font-family: 'DejaVu Sans'; fill: #17212b">‖</tspan>
      <tspan x="87.568667" y="-13.746875" style="font-size: 9.1px; font-family: 'DejaVu Sans'; fill: #17212b">−</tspan>
      <tspan x="88.568667" y="6.960625" style="font-size: 9.1px; font-family: 'DejaVu Sans'; fill: #17212b">−</tspan>
      <tspan x="103.00021" y="-14.767187" style="font-size: 9.1px; font-family: 'DejaVu Sans'; fill: #17212b">̂</tspan>
      <tspan x="103.351724" y="6.960625" style="font-size: 9.1px; font-family: 'DejaVu Sans'; fill: #17212b">‖</tspan>
      <tspan x="103.890835" y="6.971563" style="font-size: 9.1px; font-family: 'DejaVu Sans'; fill: #17212b">̄</tspan>
      <tspan x="104.457432" y="-13.746875" style="font-size: 9.1px; font-family: 'DejaVu Sans'; fill: #17212b">‖</tspan>
      <tspan x="78.391797" y="-13.746875" style="font-style: oblique; font-size: 9.1px; font-family: 'DejaVu Sans'; fill: #17212b">x</tspan>
      <tspan x="79.391797" y="6.960625" style="font-style: oblique; font-size: 9.1px; font-family: 'DejaVu Sans'; fill: #17212b">x</tspan>
      <tspan x="96.966372" y="-13.746875" style="font-style: oblique; font-size: 9.1px; font-family: 'DejaVu Sans'; fill: #17212b">x</tspan>
      <tspan x="97.966372" y="6.960625" style="font-style: oblique; font-size: 9.1px; font-family: 'DejaVu Sans'; fill: #17212b">x</tspan>
      <tspan x="107.988813" y="3.202325" style="font-size: 6.37px; font-family: 'DejaVu Sans'; fill: #17212b">2</tspan>
      <tspan x="109.094521" y="-17.505175" style="font-size: 6.37px; font-family: 'DejaVu Sans'; fill: #17212b">2</tspan>
     </text>
     <rect x="65.583984" y="-4.105" width="47.812153" height="0.8125"/>
    </g>
   </g>
   <g id="text_6">
    <text style="font-weight: 700; font-size: 9.5px; font-family: 'DejaVu Sans'; text-anchor: middle; fill: #17212b" x="226.08" y="310.988145" transform="rotate(-0 226.08 310.988145)">Does the SAE preserve clean activations?</text>
   </g>
   <g id="text_7">
    <text style="font-size: 8.4px; font-family: 'DejaVu Sans'; fill: #5f6b76" transform="translate(202.351969 347.780883)">ReLU SAEs:</text>
    <text style="font-size: 8.4px; font-family: 'DejaVu Sans'; fill: #5f6b76" transform="translate(178.639031 357.86318)">high FVE, dense codes</text>
   </g>
   <g id="text_8">
    <g id="patch_9">
     <path d="M 456.48 195.844 
C 458.734226 195.844 460.896429 194.948386 462.490408 193.354408 
C 464.084386 191.760429 464.98 189.598226 464.98 187.344 
C 464.98 185.089774 464.084386 182.927571 462.490408 181.333592 
C 460.896429 179.739614 458.734226 178.844 456.48 178.844 
C 454.225774 178.844 452.063571 179.739614 450.469592 181.333592 
C 448.875614 182.927571 447.98 185.089774 447.98 187.344 
C 447.98 189.598226 448.875614 191.760429 450.469592 193.354408 
C 452.063571 194.948386 454.225774 195.844 456.48 195.844 
z
" style="fill: #7b5aa6; stroke: #7b5aa6; stroke-linejoin: miter"/>
    </g>
    <text style="font-weight: 700; font-size: 10px; font-family: 'DejaVu Sans'; text-anchor: middle; fill: #ffffff" x="456.48" y="189.941656" transform="rotate(-0 456.48 189.941656)">2</text>
   </g>
   <g id="text_9">
    <text style="font-weight: 700; font-size: 9px; font-family: 'DejaVu Sans'; text-anchor: start; fill: #7b5aa6" x="491.04" y="189.681891" transform="rotate(-0 491.04 189.681891)">DECODABILITY</text>
   </g>
   <g id="text_10">
    <!-- $\mathrm{AUC}(q^\top x, y)$ -->
    <g style="fill: #17212b" transform="translate(542.965 253.44)">
     <text>
      <tspan x="0" y="-0.254438" style="font-size: 13px; font-family: 'DejaVu Sans'; fill: #17212b">A</tspan>
      <tspan x="8.893066" y="-0.254438" style="font-size: 13px; font-family: 'DejaVu Sans'; fill: #17212b">U</tspan>
      <tspan x="18.408203" y="-0.254438" style="font-size: 13px; font-family: 'DejaVu Sans'; fill: #17212b">C</tspan>
      <tspan x="27.485352" y="-0.254438" style="font-size: 13px; font-family: 'DejaVu Sans'; fill: #17212b">(</tspan>
      <tspan x="60.935326" y="-0.254438" style="font-size: 13px; font-family: 'DejaVu Sans'; fill: #17212b">,</tspan>
      <tspan x="75.293724" y="-0.254438" style="font-size: 13px; font-family: 'DejaVu Sans'; fill: #17212b">)</tspan>
      <tspan x="32.557129" y="-0.254438" style="font-style: oblique; font-size: 13px; font-family: 'DejaVu Sans'; fill: #17212b">q</tspan>
      <tspan x="53.241966" y="-0.254438" style="font-style: oblique; font-size: 13px; font-family: 'DejaVu Sans'; fill: #17212b">x</tspan>
      <tspan x="67.600365" y="-0.254438" style="font-style: oblique; font-size: 13px; font-family: 'DejaVu Sans'; fill: #17212b">y</tspan>
      <tspan x="43.186644" y="-5.623438" style="font-size: 9.1px; font-family: 'DejaVu Sans'; fill: #17212b">⊤</tspan>
     </text>
    </g>
   </g>
   <g id="text_11">
    <text style="font-weight: 700; font-size: 9.5px; font-family: 'DejaVu Sans'; text-anchor: middle; fill: #17212b" x="583.2" y="310.988145" transform="rotate(-0 583.2 310.988145)">Can a classifier recover the variable?</text>
   </g>
   <g id="text_12">
    <text style="font-size: 8.4px; font-family: 'DejaVu Sans'; fill: #5f6b76" transform="translate(536.828062 347.781211)">Balanced carry probe:</text>
    <text style="font-size: 8.4px; font-family: 'DejaVu Sans'; fill: #5f6b76" transform="translate(525.888375 357.863508)">AUC 1.0, Top-10 causal null</text>
   </g>
   <g id="text_13">
    <g id="patch_10">
     <path d="M 813.6 195.844 
C 815.854226 195.844 818.016429 194.948386 819.610408 193.354408 
C 821.204386 191.760429 822.1 189.598226 822.1 187.344 
C 822.1 185.089774 821.204386 182.927571 819.610408 181.333592 
C 818.016429 179.739614 815.854226 178.844 813.6 178.844 
C 811.345774 178.844 809.183571 179.739614 807.589592 181.333592 
C 805.995614 182.927571 805.1 185.089774 805.1 187.344 
C 805.1 189.598226 805.995614 191.760429 807.589592 193.354408 
C 809.183571 194.948386 811.345774 195.844 813.6 195.844 
z
" style="fill: #c53b4c; stroke: #c53b4c; stroke-linejoin: miter"/>
    </g>
    <text style="font-weight: 700; font-size: 10px; font-family: 'DejaVu Sans'; text-anchor: middle; fill: #ffffff" x="813.6" y="189.941656" transform="rotate(-0 813.6 189.941656)">3</text>
   </g>
   <g id="text_14">
    <text style="font-weight: 700; font-size: 9px; font-family: 'DejaVu Sans'; text-anchor: start; fill: #c53b4c" x="848.16" y="189.681891" transform="rotate(-0 848.16 189.681891)">CAUSAL SPECIFICITY</text>
   </g>
   <g id="text_15">
    <!-- $\Delta_{pair}=\Delta_{target}-\Delta_{control}$ -->
    <g style="fill: #17212b" transform="translate(871.68 253.44)">
     <text>
      <tspan x="0" y="-0.515625" style="font-size: 13px; font-family: 'DejaVu Sans'; fill: #17212b">Δ</tspan>
      <tspan x="29.528027" y="-0.515625" style="font-size: 13px; font-family: 'DejaVu Sans'; fill: #17212b">=</tspan>
      <tspan x="42.95332" y="-0.515625" style="font-size: 13px; font-family: 'DejaVu Sans'; fill: #17212b">Δ</tspan>
      <tspan x="82.687744" y="-0.515625" style="font-size: 13px; font-family: 'DejaVu Sans'; fill: #17212b">−</tspan>
      <tspan x="96.113037" y="-0.515625" style="font-size: 13px; font-family: 'DejaVu Sans'; fill: #17212b">Δ</tspan>
      <tspan x="9.01748" y="1.434369" style="font-style: oblique; font-size: 9.1px; font-family: 'DejaVu Sans'; fill: #17212b">p</tspan>
      <tspan x="14.793848" y="1.434369" style="font-style: oblique; font-size: 9.1px; font-family: 'DejaVu Sans'; fill: #17212b">a</tspan>
      <tspan x="20.370264" y="1.434369" style="font-style: oblique; font-size: 9.1px; font-family: 'DejaVu Sans'; fill: #17212b">i</tspan>
      <tspan x="22.898535" y="1.434369" style="font-style: oblique; font-size: 9.1px; font-family: 'DejaVu Sans'; fill: #17212b">r</tspan>
      <tspan x="51.970801" y="1.434369" style="font-style: oblique; font-size: 9.1px; font-family: 'DejaVu Sans'; fill: #17212b">t</tspan>
      <tspan x="55.538818" y="1.434369" style="font-style: oblique; font-size: 9.1px; font-family: 'DejaVu Sans'; fill: #17212b">a</tspan>
      <tspan x="61.115234" y="1.434369" style="font-style: oblique; font-size: 9.1px; font-family: 'DejaVu Sans'; fill: #17212b">r</tspan>
      <tspan x="64.856543" y="1.434369" style="font-style: oblique; font-size: 9.1px; font-family: 'DejaVu Sans'; fill: #17212b">g</tspan>
      <tspan x="70.63291" y="1.434369" style="font-style: oblique; font-size: 9.1px; font-family: 'DejaVu Sans'; fill: #17212b">e</tspan>
      <tspan x="76.231543" y="1.434369" style="font-style: oblique; font-size: 9.1px; font-family: 'DejaVu Sans'; fill: #17212b">t</tspan>
      <tspan x="105.130518" y="1.434369" style="font-style: oblique; font-size: 9.1px; font-family: 'DejaVu Sans'; fill: #17212b">c</tspan>
      <tspan x="110.13374" y="1.434369" style="font-style: oblique; font-size: 9.1px; font-family: 'DejaVu Sans'; fill: #17212b">o</tspan>
      <tspan x="115.70127" y="1.434369" style="font-style: oblique; font-size: 9.1px; font-family: 'DejaVu Sans'; fill: #17212b">n</tspan>
      <tspan x="121.46875" y="1.434369" style="font-style: oblique; font-size: 9.1px; font-family: 'DejaVu Sans'; fill: #17212b">t</tspan>
      <tspan x="125.036768" y="1.434369" style="font-style: oblique; font-size: 9.1px; font-family: 'DejaVu Sans'; fill: #17212b">r</tspan>
      <tspan x="128.778076" y="1.434369" style="font-style: oblique; font-size: 9.1px; font-family: 'DejaVu Sans'; fill: #17212b">o</tspan>
      <tspan x="134.345605" y="1.434369" style="font-style: oblique; font-size: 9.1px; font-family: 'DejaVu Sans'; fill: #17212b">l</tspan>
     </text>
    </g>
   </g>
   <g id="text_16">
    <text style="font-weight: 700; font-size: 9.5px; font-family: 'DejaVu Sans'; text-anchor: middle; fill: #17212b" x="940.32" y="310.988145" transform="rotate(-0 940.32 310.988145)">Does a frozen edit move the intended contrast selectively?</text>
   </g>
   <g id="text_17">
    <text style="font-size: 8.4px; font-family: 'DejaVu Sans'; fill: #5f6b76" transform="translate(906.481125 347.781211)">10k units panel:</text>
    <text style="font-size: 8.4px; font-family: 'DejaVu Sans'; fill: #5f6b76" transform="translate(897.739875 357.863508)">held-out paired shift</text>
   </g>
   <g id="text_18">
    <!-- $\nRightarrow$ -->
    <g style="fill: #c53b4c" transform="translate(395.337 252.144)">
     <text>
      <tspan x="3.312012" y="-0.03125" style="font-size: 17px; font-family: 'DejaVu Sans'; fill: #c53b4c">⇏</tspan>
     </text>
    </g>
   </g>
   <g id="text_19">
    <!-- $\nRightarrow$ -->
    <g style="fill: #c53b4c" transform="translate(752.457 252.144)">
     <text>
      <tspan x="3.312012" y="-0.03125" style="font-size: 17px; font-family: 'DejaVu Sans'; fill: #c53b4c">⇏</tspan>
     </text>
    </g>
   </g>
   <g id="text_20">
    <text style="font-weight: 700; font-size: 8.5px; font-family: 'DejaVu Sans'; text-anchor: middle; fill: #17212b" x="583.2" y="480.24" transform="rotate(-0 583.2 480.24)">MECHANISTIC CLAIM STANDARD</text>
   </g>
   <g id="text_21">
    <text style="font-weight: 700; font-size: 11px; font-family: 'DejaVu Sans'; text-anchor: middle; fill: #17212b" x="583.2" y="509.4" transform="rotate(-0 583.2 509.4)">Frozen feature set + disjoint confirmation cases + matched control + uncertainty interval</text>
   </g>
  </g>
 </g>
 <defs>
  <clipPath id="p517e485285">
   <rect x="7.2" y="7.2" width="1152" height="648"/>
  </clipPath>
 </defs>
</svg>
